<?xml version="1.0" encoding="utf-8"?>
<!-- Generator: Adobe Illustrator 22.1.0, SVG Export Plug-In . SVG Version: 6.00 Build 0)  -->
<svg version="1.1" id="Layer_1" xmlns="http://www.w3.org/2000/svg" xmlns:xlink="http://www.w3.org/1999/xlink" x="0px" y="0px"
	 viewBox="0 0 800 800" style="enable-background:new 0 0 800 800;" xml:space="preserve">
<style type="text/css">
	.st0{fill:#B5882D;}
	.st1{fill:#EDCBA2;}
	.st2{fill:none;stroke:#000000;stroke-width:0.9333;stroke-linecap:round;stroke-linejoin:round;}
	.st3{fill:#FFFFFF;}
	.st4{fill:#5F3B15;}
	.st5{fill:#FAE500;}
</style>
<g>
	<g>
		<path class="st0" d="M446.8,345.6c1.8,30.1,20.7,53.5,42.3,52.3c21.6-1.3,37.6-26.7,35.8-56.9c-1.8-30.1-22.8-89.9-44.4-88.7
			C458.9,253.6,445,315.5,446.8,345.6z"/>
		<path class="st0" d="M246.4,357.5c1.8,30.1,20.7,53.5,42.3,52.3c21.6-1.3,37.6-26.7,35.8-56.9c-1.8-30.1-22.8-89.9-44.4-88.7
			C258.5,265.5,244.6,327.3,246.4,357.5z"/>
	</g>
	<path class="st0" d="M95.2,503.5c-1.6-30.2,66.2-47.3,101.2,18.9l-95.1,0.2C97.9,517.6,95.6,511.4,95.2,503.5z"/>
	<path class="st0" d="M608.2,513.6c21.2-46.1,116.9-41.6,108.9-11.6c-2.3,8.5-6.3,14.8-11.4,19.5l-101.4,0.2
		C605.6,519,606.9,516.4,608.2,513.6z"/>
	<path class="st1" d="M207.2,521.8c-1.6-27.5,16.6-53.7,47.6-74.1c-6.9-17.3-11.1-35.2-12.2-52.4c-4.6-78.6,60.7-104.5,139.2-109.2
		c78.6-4.6,143.4,10.7,148.1,89.3c1,17.5-1,36.2-5.8,54.7c34.9,16.6,57.3,41.1,59,69.4c0.4,7.5-0.6,14.9-3,22.2l-372.9,0.6
		C207.2,522.2,207.2,522,207.2,521.8z"/>
	<path class="st0" d="M244.6,361.3c-0.7,2.9-1.3,5.9-1.7,9c-1,7.2,61.3-56.7,139.9-61.3c78.6-4.6,145.2,50.3,143.7,44
		c-14.1-60.7-74-72.9-145.2-68.7C314.7,288.2,257.6,307.5,244.6,361.3z"/>
	<g>
		<path class="st0" d="M380.7,302.8L380.7,302.8c20.5-3.6,64,58.4,56,63.8c-43.1,29.1-7.9,130.2-7.9,130.2l-33.9,6.5l0.1,0.1l-0.4,0
			l-0.4,0.1l0-0.1l-34.6-2.4c0,0,22.3-104.6-23.9-128.4C327.7,368.3,363.5,306.5,380.7,302.8z"/>
	</g>
	<path class="st2" d="M350.2,534.5"/>
	<path d="M358.5,497.3c0.7,12,17.3,20.7,37,19.5l0,0c19.7-1.2,35.1-11.8,34.4-23.7l0,0c-0.7-11.9-17.3-20.7-37-19.5l0,0
		C373.2,474.7,357.8,485.4,358.5,497.3L358.5,497.3z"/>
	<g>
		<path d="M439.3,426.1c-0.7-12.1,8.5-22.6,20.7-23.3c12.1-0.7,22.6,8.5,23.3,20.7c0.7,12.1-8.6,22.6-20.7,23.3
			C450.5,447.5,440,438.2,439.3,426.1z"/>
		<path class="st3" d="M461.8,415.7c0.1,2.9,2.6,5.1,5.5,4.9c2.9-0.2,5.1-2.6,4.9-5.5c-0.2-2.9-2.6-5.1-5.5-4.9
			C463.8,410.4,461.7,412.9,461.8,415.7z"/>
		<path d="M297.4,434.5c-0.7-12.1,8.5-22.6,20.7-23.3c12.1-0.7,22.6,8.6,23.3,20.7c0.7,12.1-8.5,22.6-20.7,23.3
			C308.5,455.9,298.1,446.6,297.4,434.5z"/>
		<path class="st3" d="M319.9,424.1c0.2,2.9,2.6,5.1,5.5,4.9c2.9-0.2,5.1-2.6,4.9-5.5c-0.2-2.9-2.6-5.1-5.5-4.9
			C321.9,418.8,319.7,421.3,319.9,424.1z"/>
	</g>
	<g>
		<path class="st4" d="M378.2,303.9L378.2,303.9c1.1-0.1,2.2-0.2,3.3-0.2c1.1-0.1,2.2-0.1,3.3-0.2l0,0
			c182.2-8.6,154.3,86.8,144.6,80c-15.8-11.1-45.8,5.1-79.6,2.2c-49.3-4.2-49.6-38.5-65.9-41.6c-15.8,5-12.1,39.1-60.5,49.1
			c-33.2,6.8-64.8-5.8-79.3,7.2C235.2,408.3,196.2,316.9,378.2,303.9z"/>
	</g>
	<g>
		<path class="st5" d="M407.6,338.1c1.2,20.6,24.6,35.9,52.3,34.3c27.7-1.6,49.1-19.6,47.9-40.2c-1.2-20.6-24.6-35.9-52.3-34.3
			C427.9,299.5,406.4,317.5,407.6,338.1z"/>
		<path class="st3" d="M423.7,333.3c0.8,13.9,16.6,24.2,35.3,23.1c18.6-1.1,33.1-13.2,32.3-27.1c-0.8-13.9-16.6-24.2-35.3-23.1
			C437.4,307.4,422.9,319.5,423.7,333.3z"/>
	</g>
	<g>
		<path class="st5" d="M262.3,346.7c1.2,20.6,24.6,35.9,52.3,34.3c27.7-1.6,49.1-19.6,47.9-40.2c-1.2-20.6-24.6-35.9-52.3-34.3
			C282.5,308.1,261,326.1,262.3,346.7z"/>
		<path class="st3" d="M278.4,341.9c0.8,13.9,16.6,24.2,35.3,23.1c18.6-1.1,33.1-13.2,32.3-27.1c-0.8-13.9-16.6-24.2-35.3-23.1
			C292,316,277.5,328.1,278.4,341.9z"/>
	</g>
	<path class="st0" d="M613.5,508.1c2.5,20.8,28.3,37.7,59,38.1s60.7-10.6,62.9-31.4c1.5-13.6-27.6-39.2-58.4-39.6
		C646.4,474.8,612.7,501.2,613.5,508.1z"/>
	<path class="st0" d="M185.3,522c-11.8,15.6-35,28.3-65.6,25.2c-33.6-3.4-55.4-15-55.3-30.2c0.1-13.7,20.7-37.8,65.3-40.2
		C160.4,475.1,189.5,516.4,185.3,522z"/>
</g>
</svg>
